<?xml version="1.0" encoding="UTF-8" standalone="no"?>

<svg width="100%" height="100%" viewBox="0 0 24 20" version="1.1" xmlns="http://www.w3.org/2000/svg"   xmlns:serif="http://www.serif.com/" style="fill-rule:evenodd;clip-rule:evenodd;stroke-linejoin:round;stroke-miterlimit:2;">
    <g transform="matrix(1,0,0,1,-7141,-9412)">
        <g id="commands" transform="matrix(1.93047,0,0,1.93047,-6644.01,-8778.63)">
            <g transform="matrix(0.620834,0,0,0.75,2712.32,2357.93)">
                <path d="M7145,9433.24L7151,9433.24C7152.02,9433.24 7152.85,9432.55 7152.85,9431.71C7152.85,9430.87 7152.02,9430.18 7151,9430.18L7145,9430.18C7143.98,9430.18 7143.15,9430.87 7143.15,9431.71C7143.15,9432.55 7143.98,9433.24 7145,9433.24Z" style="fill:rgb(55,222,143);"/>
            </g>
            <g transform="matrix(0.75,0,0,0.75,1787.75,2357.93)">
                <path d="M7141.81,9426.74L7137.92,9422.86C7137.32,9422.26 7137.32,9421.29 7137.92,9420.69C7138.52,9420.1 7139.48,9420.1 7140.08,9420.69L7145.05,9425.66C7145.64,9426.26 7145.64,9427.23 7145.05,9427.82L7140.08,9432.79C7139.48,9433.39 7138.52,9433.39 7137.92,9432.79C7137.32,9432.19 7137.32,9431.23 7137.92,9430.63L7141.81,9426.74Z" style="fill:rgb(55,222,143);"/>
            </g>
        </g>
    </g>
</svg>
