<?xml version="1.0" encoding="UTF-8" standalone="no"?><svg width="100%" height="100%" viewBox="0 0 5 5" version="1.1" xmlns="http://www.w3.org/2000/svg"   xmlns:serif="http://www.serif.com/" style="fill-rule:evenodd;clip-rule:evenodd;stroke-linejoin:round;stroke-miterlimit:2;"><path id="reset" d="M3.866,1.641l-1.006,0c-0.135,0 -0.24,-0.108 -0.24,-0.24c0,-0.132 0.108,-0.24 0.24,-0.24l0.466,0c-0.293,-0.228 -0.656,-0.357 -1.035,-0.357c-0.466,0 -0.9,0.187 -1.222,0.525c-0.295,0.312 -0.458,0.723 -0.458,1.155c0,0.926 0.753,1.68 1.68,1.68c0.432,0 0.842,-0.163 1.154,-0.459c0.096,-0.091 0.247,-0.086 0.339,0.01c0.091,0.096 0.086,0.247 -0.01,0.338c-0.403,0.38 -0.931,0.588 -1.486,0.588c-1.19,0 -2.16,-0.969 -2.157,-2.16c0,-0.554 0.209,-1.082 0.59,-1.485c0.415,-0.435 0.972,-0.675 1.57,-0.675c0.493,0 0.967,0.171 1.346,0.472l0,-0.409c0,-0.132 0.108,-0.24 0.24,-0.24c0.132,0 0.24,0.108 0.24,0.24l0,0.991c0.008,0.079 -0.023,0.161 -0.091,0.214c-0.021,0.017 -0.044,0.03 -0.07,0.039c-0.03,0.01 -0.06,0.015 -0.09,0.013Z" style="fill:rgb(156,156,176);"/></svg>
